<?xml version="1.0" encoding="UTF-8" standalone="no"?>
<!-- Created with Inkscape (http://www.inkscape.org/) -->

<svg
   width="1200"
   height="440"
   viewBox="0 0 317.49999 116.41667"
   version="1.1"
   id="svg1"
   xml:space="preserve"
   inkscape:version="1.3.2 (091e20e, 2023-11-25)"
   sodipodi:docname="logo.svg"
   xmlns:inkscape="http://www.inkscape.org/namespaces/inkscape"
   xmlns:sodipodi="http://sodipodi.sourceforge.net/DTD/sodipodi-0.dtd"
   xmlns:xlink="http://www.w3.org/1999/xlink"
   xmlns="http://www.w3.org/2000/svg"
   xmlns:svg="http://www.w3.org/2000/svg"><sodipodi:namedview
     id="namedview1"
     pagecolor="#ffffff"
     bordercolor="#000000"
     borderopacity="0.25"
     inkscape:showpageshadow="2"
     inkscape:pageopacity="0.0"
     inkscape:pagecheckerboard="0"
     inkscape:deskcolor="#d1d1d1"
     inkscape:document-units="mm"
     inkscape:zoom="1.1012067"
     inkscape:cx="567.55922"
     inkscape:cy="327.82221"
     inkscape:window-width="1728"
     inkscape:window-height="1051"
     inkscape:window-x="0"
     inkscape:window-y="38"
     inkscape:window-maximized="0"
     inkscape:current-layer="layer1"
     showgrid="false" /><defs
     id="defs1"><linearGradient
       id="linearGradient2"
       inkscape:collect="always"><stop
         style="stop-color:#258c68;stop-opacity:1;"
         offset="0"
         id="stop2" /><stop
         style="stop-color:#103e2e;stop-opacity:1;"
         offset="1"
         id="stop3" /></linearGradient><inkscape:path-effect
       effect="clone_original"
       linkeditem=""
       id="path-effect1"
       is_visible="true"
       lpeversion="1"
       method="d"
       attributes=""
       css_properties=""
       allow_transforms="true" /><radialGradient
       inkscape:collect="always"
       xlink:href="#linearGradient2"
       id="radialGradient3"
       cx="159.31126"
       cy="58.208332"
       fx="159.31126"
       fy="7.7388191"
       r="73.047981"
       gradientTransform="matrix(1,0,0,0.4930262,0,29.5101)"
       gradientUnits="userSpaceOnUse" /></defs><g
     inkscape:label="Layer 1"
     inkscape:groupmode="layer"
     id="layer1"><ellipse
       style="fill:url(#radialGradient3);fill-opacity:1;stroke-width:0.529167;stroke-linecap:round;stroke-linejoin:round;paint-order:stroke markers fill;opacity:1"
       id="path1"
       ry="36.014568"
       rx="73.047981"
       cy="58.208332"
       cx="158.75" /><path
       id="path13"
       style="font-size:42.2672px;line-height:0.75;font-family:'Ford Script';-inkscape-font-specification:'Ford Script';fill:#1a1a1a;stroke-width:0.529169;stroke-linecap:round;stroke-linejoin:round;paint-order:stroke markers fill"
       d="m 124.99564,37.310901 c -4.49809,0 -8.19943,0.601877 -11.10372,1.806092 -2.90428,1.168796 -5.11796,2.620836 -6.64094,4.356323 -1.52297,1.735486 -2.53238,3.400196 -3.02823,4.99401 -0.49586,1.558395 -0.79654,3.028245 -0.90279,4.40955 0,1.168797 0.10634,2.266732 0.31884,3.293856 0.24793,1.027124 0.67275,1.930197 1.27486,2.709395 0.63753,0.74378 1.50549,1.346173 2.60346,1.806608 1.09796,0.425017 2.53219,0.637688 4.30309,0.637688 3.75431,0 6.78254,-1.541085 9.08472,-4.622457 2.33759,-3.116792 3.50625,-6.853228 3.50625,-11.209652 0,-0.531271 -0.0178,-0.991711 -0.0532,-1.381311 0,-0.389598 -0.0178,-0.725896 -0.0532,-1.009241 -0.10625,-0.106254 -0.21207,-0.15968 -0.31832,-0.15968 -0.28335,0 -0.44311,0.230479 -0.47853,0.690914 -0.42501,1.806322 -0.88545,3.506134 -1.38131,5.099947 -0.46044,1.593814 -1.13303,3.240716 -2.01848,4.940784 -0.88545,1.700067 -2.019,3.117007 -3.40031,4.250386 -1.34588,1.133378 -2.93987,1.700155 -4.78162,1.700155 -1.16878,0 -2.2311,-0.496058 -3.1874,-1.487765 -0.95628,-0.991705 -1.43454,-2.337411 -1.43454,-4.037479 0.0708,-1.593814 0.49564,-3.276334 1.27486,-5.047237 0.7792,-1.806323 1.87714,-3.453224 3.29385,-4.940784 1.41673,-1.487559 3.13487,-2.727446 5.1537,-3.719153 2.01883,-0.991706 4.30322,-1.487248 6.85332,-1.487248 h 0.58446 c 0.1771,0 0.35415,0.01781 0.53124,0.05323 1.1688,0.106255 2.1782,0.21259 3.02824,0.318844 0.88545,0.106254 1.68218,0.265499 2.39055,0.478007 0.74378,0.212508 1.4347,0.495896 2.07222,0.850077 0.67294,0.354181 1.36335,0.831913 2.07171,1.434021 -3.11678,3.506389 -5.8082,6.835811 -8.07496,9.988021 -2.23134,3.152209 -3.98457,5.844137 -5.25962,8.075476 -0.60211,1.097961 -1.1867,2.142987 -1.75339,3.134692 -0.56668,0.991706 -1.09784,1.947689 -1.5937,2.868559 -0.9563,1.877159 -1.54087,2.833658 -1.75338,2.869076 -0.28335,-0.17709 -0.65527,-0.389761 -1.11569,-0.637688 -0.46044,-0.283345 -1.02721,-0.566733 -1.70016,-0.850077 -0.67295,-0.283345 -1.36335,-0.513307 -2.07171,-0.690397 -0.70836,-0.177091 -1.45218,-0.283426 -2.23138,-0.318844 -2.1251,0 -3.73689,0.301197 -4.83485,0.903304 -1.09796,0.602108 -1.64693,1.575899 -1.64693,2.921786 0,2.514683 2.39073,3.771863 7.17217,3.771863 0.88546,0 1.6471,-0.05291 2.28462,-0.159164 0.63752,-0.106255 1.2221,-0.248207 1.75338,-0.425297 0.56669,-0.17709 1.11566,-0.407053 1.64693,-0.690397 0.56669,-0.283345 1.22198,-0.619642 1.96577,-1.009241 0.3896,0.177091 0.93857,0.477771 1.64693,0.902788 l 1.5937,0.79685 c 0.35418,0.106254 0.88533,0.21259 1.5937,0.318844 0.74377,0.106254 1.75319,0.15968 3.02824,0.15968 1.52298,0.03542 2.99283,-0.195058 4.40955,-0.690914 1.45215,-0.531271 2.79837,-1.275101 4.03799,-2.231388 1.18018,-0.885124 2.2491,-1.92857 3.21686,-3.117123 0.0131,-0.0092 0.0262,-0.01597 0.0393,-0.02532 0.16906,-0.169069 0.32367,-0.338394 0.46457,-0.507463 0.10178,-0.152682 0.17309,-0.290427 0.22892,-0.420129 0.0258,-0.03543 0.053,-0.06984 0.0786,-0.10542 0.56982,-0.650709 1.10404,-1.253641 1.59474,-1.798857 0.53538,-0.563562 1.18326,-1.155683 1.94406,-1.775602 0.47903,-0.394493 0.90182,-0.732627 1.26814,-1.014408 0.3945,-0.281781 0.71844,-0.506859 0.97204,-0.675928 0.56356,-0.394493 1.26822,-0.690554 2.11356,-0.887801 l -7.14323,12.510864 c -0.87353,0.253603 -1.63445,0.493394 -2.28255,0.718819 -0.67628,0.225425 -1.28208,0.507289 -1.81746,0.845427 -0.56356,0.338137 -1.0847,0.760933 -1.56373,1.268139 -0.47902,0.535385 -0.97229,1.211652 -1.47949,2.028817 -1.43709,2.366961 -2.15543,4.198562 -2.15543,5.494755 0,1.04259 0.4228,1.87347 1.26814,2.493388 0.53538,0.394494 1.11279,0.591695 1.73271,0.591695 0.70446,0 1.45119,-0.239275 2.24018,-0.718302 0.76081,-0.45085 1.49334,-1.014578 2.1978,-1.690853 0.67627,-0.676275 1.28207,-1.366739 1.81746,-2.071191 0.53538,-0.676275 0.88771,-1.155341 1.05678,-1.437122 0.9017,-1.380727 2.1275,-3.803934 3.67729,-7.26984 1.01441,-0.112713 1.88788,-0.295718 2.62052,-0.549321 0.73263,-0.253603 1.54983,-0.690596 2.45153,-1.310514 1.09894,-0.76081 1.88775,-1.380291 2.36678,-1.859318 0.47331,-0.473311 1.05482,-1.216679 1.72444,-2.180746 l 1.86862,-1.623673 c -0.76081,1.916111 -1.14153,3.339113 -1.14153,4.26899 0,0.817165 0.25399,1.563899 0.76119,2.240173 0.90171,1.070768 2.07072,1.606104 3.5078,1.606104 0.87352,0 1.64865,-0.211399 2.32492,-0.63407 0.78898,-0.45085 1.38059,-0.831057 1.77508,-1.141016 0.19725,-0.14089 0.38026,-0.281822 0.54932,-0.422713 0.16908,-0.140891 0.3384,-0.281823 0.50747,-0.422713 0.16906,-0.140891 0.42253,-0.352289 0.76067,-0.63407 0.36632,-0.309959 0.83119,-0.704362 1.39475,-1.18339 -0.19725,0.676274 -0.29559,1.352542 -0.29559,2.028816 0,1.577974 0.76093,2.367298 2.28255,2.367298 1.8034,-0.112713 3.6208,-1.085041 5.45238,-2.916618 0.42267,-0.422672 0.775,-0.775002 1.05678,-1.056783 0.28178,-0.281781 0.52106,-0.549449 0.71831,-0.803052 0.19724,-0.253603 0.38025,-0.507074 0.54932,-0.760677 0.10928,-0.163933 0.24956,-0.40558 0.3824,-0.628385 l 2.19625,-1.907894 c -0.76081,1.859755 -1.14153,3.282756 -1.14153,4.26899 0,0.873521 0.25347,1.620254 0.76068,2.240173 0.90169,1.070768 2.07122,1.606104 3.50831,1.606104 0.87352,0 1.64864,-0.211399 2.32492,-0.63407 0.50721,-0.309959 0.93001,-0.577627 1.26814,-0.803052 0.36632,-0.253603 0.64766,-0.450805 0.84491,-0.591695 0.19725,-0.140891 0.53538,-0.408558 1.01441,-0.803052 0.47902,-0.422671 1.09902,-0.958007 1.85983,-1.606103 -0.19724,0.676274 -0.29559,1.338345 -0.29559,1.986442 0,1.606151 0.76042,2.409672 2.28204,2.409672 1.8034,-0.112713 3.62132,-1.085041 5.45289,-2.916618 0.87353,-0.929877 1.5072,-1.606145 1.9017,-2.028817 0.17884,-0.229938 0.35405,-0.475019 0.52709,-0.728121 0.0368,0.0023 0.0666,0.0093 0.10698,0.0093 0.16906,-0.112712 0.39466,-0.267324 0.67644,-0.464571 0.28178,-0.225425 0.56364,-0.436823 0.84543,-0.63407 0.28178,-0.197246 0.53525,-0.366572 0.76067,-0.507462 0.2536,-0.169069 0.42293,-0.267411 0.50747,-0.29559 l -0.38086,0.760677 c -0.22543,0.422672 -0.36635,0.802879 -0.42271,1.141016 0,3.804044 2.01512,5.706112 6.04459,5.706112 0.76081,-0.05635 1.52174,-0.168893 2.28255,-0.337964 0.76081,-0.197247 1.53542,-0.506988 2.3244,-0.929659 0.81717,-0.422672 1.66276,-0.972204 2.53628,-1.648478 0.87352,-0.704453 1.80326,-1.592119 2.7895,-2.662887 0.11271,-0.112713 0.25364,-0.282038 0.42271,-0.507463 0.19725,-0.253603 0.29559,-0.465001 0.29559,-0.634069 0,-0.281781 -0.23928,-0.464786 -0.7183,-0.549321 -0.0563,0 -0.50701,0.436993 -1.35238,1.310515 -0.81716,0.873521 -1.64855,1.591861 -2.4939,2.155423 -0.47903,0.30996 -0.98649,0.591825 -1.52187,0.845427 -0.50721,0.253603 -1.02835,0.465001 -1.56373,0.63407 -0.50721,0.169069 -0.98627,0.310001 -1.43712,0.422713 -0.45085,0.08454 -0.84525,0.126607 -1.18339,0.126607 -1.21166,-0.02818 -1.81746,-0.591908 -1.81746,-1.690853 0,-0.450849 0.0705,-0.873129 0.21135,-1.267623 l 0.38034,-0.887801 c 1.5498,-0.112712 2.95861,-0.38038 4.22662,-0.803051 1.29619,-0.45085 2.39526,-0.986185 3.29695,-1.606104 0.92988,-0.648096 1.63403,-1.380633 2.11305,-2.197799 0.50721,-0.817165 0.7612,-1.690634 0.7612,-2.620511 0,-1.916112 -1.4514,-2.874244 -4.35374,-2.874244 -1.40891,0 -2.81771,0.394403 -4.22662,1.183391 -1.4089,0.788986 -2.69097,1.676653 -3.84627,2.662886 -1.12166,0.957515 -2.81178,2.483444 -5.02244,4.529956 l 0.077,0.077 c 0,0.01176 -0.019,0.02047 -0.0264,0.03101 -0.0161,-0.03215 -0.0389,-0.07734 -0.0532,-0.105937 -0.0654,0.06055 -0.10779,0.09818 -0.17415,0.159681 0,0.0027 -0.0266,0.03987 -0.0284,0.04496 -0.12842,0.02413 -0.24763,0.03927 -0.35192,0.03927 -1.04258,0.986234 -1.88766,1.789237 -2.53576,2.409155 -0.61992,0.619919 -1.07111,1.056912 -1.35289,1.310515 -0.56356,0.479028 -0.98584,0.718302 -1.26762,0.718302 -0.0563,0 -0.11312,-0.02787 -0.1695,-0.08423 -0.0845,-0.02818 -0.12661,-0.141237 -0.12661,-0.338481 0,-0.253603 0.11254,-0.63381 0.33797,-1.141016 0.22542,-0.535383 0.49309,-1.112792 0.80305,-1.73271 0.33814,-0.619919 0.69047,-1.239917 1.05678,-1.859835 0.36631,-0.619918 0.67657,-1.169451 0.93018,-1.648478 0.14088,-0.253604 0.42275,-0.732669 0.84542,-1.437122 0.45086,-0.732631 1.04246,-1.704959 1.77509,-2.916618 1.46526,-2.395139 2.73313,-4.508088 3.8039,-6.339665 1.09895,-1.803398 1.98661,-3.296866 2.66289,-4.480346 0.70445,-1.183481 1.12725,-1.916535 1.26814,-2.198316 h -5.03019 l -8.15712,13.906128 c -0.28179,-0.73263 -0.54945,-1.282162 -0.80305,-1.648478 -0.25361,-0.366315 -0.6764,-0.704449 -1.26814,-1.014408 -0.47903,-0.281781 -1.1695,-0.422714 -2.0712,-0.422714 -0.98623,0 -2.11317,0.239792 -3.38118,0.71882 -1.23984,0.479027 -2.5361,1.239441 -3.88866,2.282031 -0.56356,0.450849 -1.08521,0.859449 -1.56424,1.225765 -0.47903,0.366315 -0.90131,0.704449 -1.26762,1.014408 -0.73264,0.648097 -1.32476,1.240218 -1.77561,1.775602 -0.22542,0.281781 -0.50677,0.619915 -0.84491,1.014409 -0.36631,0.366315 -0.77491,0.802791 -1.22576,1.309997 -0.0468,0.07029 -0.10935,0.18753 -0.1757,0.31626 -0.53565,0.516942 -1.10366,1.066039 -1.51515,1.458826 -0.61992,0.59174 -1.11319,1.042929 -1.4795,1.352889 -0.67628,0.59174 -1.16902,0.887284 -1.47898,0.887284 -0.0845,0 -0.155,-0.02787 -0.21136,-0.08423 -0.0845,-0.02818 -0.12712,-0.141237 -0.12712,-0.338481 0,-0.507206 0.29606,-1.323889 0.8878,-2.451013 0.61992,-1.155302 1.35246,-2.465765 2.1978,-3.931026 0.30996,-0.479029 0.73275,-1.225762 1.26814,-2.240174 0.56356,-1.014411 1.25402,-2.282284 2.07119,-3.803902 h -4.60747 l -1.52135,2.578137 c -0.28179,-0.73263 -0.54946,-1.282162 -0.80306,-1.648478 -0.2536,-0.366315 -0.67639,-0.704449 -1.26814,-1.014408 -0.47902,-0.281781 -1.15529,-0.422714 -2.02881,-0.422714 -1.01441,0 -2.15555,0.239792 -3.42357,0.71882 -1.26801,0.479027 -2.57848,1.239441 -3.93102,2.282031 -0.81717,0.619918 -1.50763,1.183647 -2.07119,1.690853 -0.56356,0.507205 -1.08471,1.000468 -1.56373,1.479496 -0.47904,0.479027 -0.9439,0.971773 -1.39475,1.478979 -0.47903,0.507206 -1.00016,1.070935 -1.56373,1.690853 -0.0563,0.08453 -0.1268,0.225466 -0.21136,0.422714 -0.0274,0.048 -0.0206,0.06151 -0.0413,0.102836 -0.83477,1.029364 -1.81542,1.849462 -2.96002,2.433443 -1.46526,0.73263 -2.578,1.1975 -3.33882,1.394747 l 7.86154,-12.80697 c -1.09895,-0.366316 -2.05708,-0.549838 -2.87424,-0.549838 -0.53539,0 -1.14119,0.08466 -1.81746,0.253732 -0.67628,0.14089 -1.52135,0.408558 -2.53577,0.803051 -0.92988,0.309959 -2.15567,1.07089 -3.67729,2.282548 -0.45414,0.384274 -0.92358,0.814694 -1.38855,1.23145 0.64424,-1.39262 1.15061,-2.840561 1.50379,-4.349606 0.3896,-1.66465 0.56665,-3.32936 0.53123,-4.99401 0,-1.487559 -0.17705,-2.868366 -0.53123,-4.143416 -0.35419,-1.31047 -0.74391,-2.373304 -1.16892,-3.187919 -0.21251,-0.3896 -0.44247,-0.796614 -0.6904,-1.221631 -0.21251,-0.425017 -0.46027,-0.832549 -0.74363,-1.222148 -0.49585,-0.885452 -0.74414,-1.363701 -0.74414,-1.434538 0,-0.141672 0.58458,-0.566496 1.75339,-1.274857 1.20421,-0.672944 1.80609,-1.221912 1.80609,-1.646928 0,-0.141673 -0.0529,-0.265817 -0.15917,-0.37207 -0.17708,-0.177091 -0.44267,-0.265617 -0.79685,-0.265617 -0.31876,0 -0.69068,0.07072 -1.11569,0.21239 -0.38959,0.106255 -0.79712,0.266015 -1.22215,0.478524 -0.42502,0.177089 -0.83203,0.371435 -1.22163,0.583943 -0.35418,0.177091 -0.63758,0.336852 -0.85008,0.478524 -0.85003,-0.425016 -1.78871,-0.832548 -2.81585,-1.222148 -1.02711,-0.389599 -2.07214,-0.743705 -3.13469,-1.062467 -1.02712,-0.318762 -2.01872,-0.566533 -2.97501,-0.743624 -0.92087,-0.17709 -1.71761,-0.265617 -2.39055,-0.265617 z m 72.48963,29.418876 c 9.1e-4,-8.46e-4 0.002,-0.0012 0.003,-0.0021 l -0.007,-0.0067 c 0.001,0.0023 0.003,0.0064 0.004,0.0088 z M 136.57736,44.323393 c 1.45215,2.089667 2.17816,5.047173 2.17816,8.872327 -0.10625,3.435553 -0.51327,6.286726 -1.22163,8.553483 -0.67294,2.266757 -1.50529,4.019994 -2.497,5.259627 -0.99171,1.204215 -1.93039,2.089479 -2.81585,2.656169 -0.46044,0.283344 -1.00941,0.60235 -1.64693,0.95653 -0.63753,0.318763 -1.36354,0.67287 -2.17816,1.062468 -0.67294,0.354182 -1.57602,0.531234 -2.7094,0.531234 -1.73549,0 -3.73701,-0.531159 -6.00377,-1.593702 3.22305,-2.125084 5.70231,-4.232428 7.43779,-6.322094 1.77091,-2.089668 3.04641,-4.002148 3.82561,-5.737635 0.77919,-1.735486 1.68226,-4.126217 2.70939,-7.172172 0.49586,-1.522977 0.99141,-2.8692 1.48725,-4.037996 0.49585,-1.168797 0.97411,-2.178205 1.43454,-3.028239 z m 17.28318,5.870443 c -0.53538,0 -1.02864,0.126735 -1.47949,0.380338 -0.50721,0.253603 -0.92949,0.648006 -1.26763,1.183391 -0.30996,0.507205 -0.46508,1.028344 -0.46508,1.563728 0,0.253604 0.0279,0.465002 0.0842,0.63407 h 5.1e-4 c 0.30996,0.732631 0.94364,1.099158 1.9017,1.099158 0.47902,0 0.95809,-0.126735 1.43712,-0.380339 1.18348,-0.648096 1.77508,-1.577835 1.77508,-2.789493 0,-0.05635 -0.0137,-0.141016 -0.0419,-0.253732 0,-0.112712 -0.0142,-0.239448 -0.0424,-0.380338 -0.22542,-0.704453 -0.85962,-1.056783 -1.90221,-1.056783 z m 57.48332,9.552388 c 0.36631,0 0.66237,0.168809 0.8878,0.506946 0.19724,0.225425 0.2961,0.50729 0.2961,0.845427 0.0563,0.507206 -0.16926,1.098811 -0.67644,1.775085 -0.50721,0.676275 -1.1414,1.310469 -1.90221,1.902209 -0.76081,0.591741 -1.56381,1.0992 -2.40916,1.521871 -0.84534,0.394493 -1.57788,0.563302 -2.1978,0.506946 0.22542,-0.676274 0.59196,-1.394615 1.09916,-2.155424 0.25361,-0.366315 0.53495,-0.732843 0.84491,-1.099158 0.30996,-0.394493 0.6481,-0.788896 1.01441,-1.18339 0.70445,-0.788987 1.12725,-1.253856 1.26814,-1.394747 0.64809,-0.817164 1.2397,-1.225765 1.77509,-1.225765 z m -45.22567,0.380339 c 0.2536,0 0.50707,0.155128 0.76068,0.465088 0.28178,0.309959 0.42271,0.746435 0.42271,1.309997 0,1.352549 -0.803,3.015342 -2.40915,4.98781 -2.76146,3.437729 -4.79026,5.156274 -6.08645,5.156274 -0.22543,0 -0.39476,-0.04207 -0.50747,-0.126607 -0.33814,-0.197247 -0.50694,-0.53538 -0.50694,-1.014409 0,-0.338137 0.0705,-0.73254 0.21136,-1.18339 0.14089,-0.479028 0.32389,-0.986487 0.54932,-1.521871 0.2536,-0.535384 0.53546,-1.084916 0.84542,-1.648478 0.33814,-0.59174 0.70467,-1.154952 1.09916,-1.690336 1.12713,-1.521618 2.12733,-2.676951 3.00085,-3.465939 0.9017,-0.788986 1.77517,-1.211783 2.62051,-1.268139 z m 22.78207,0 c 0.2536,0 0.49288,0.140932 0.71831,0.422713 0.22542,0.281781 0.33848,0.676184 0.33848,1.18339 0,1.324371 -0.84559,3.043434 -2.53628,5.156792 -1.52162,1.916111 -2.74742,3.25445 -3.6773,4.015258 -0.9017,0.76081 -1.62003,1.141016 -2.15542,1.141016 -0.22543,0 -0.39475,-0.04207 -0.50746,-0.126607 -0.28178,-0.112713 -0.42272,-0.394577 -0.42272,-0.845427 0,-0.704452 0.31026,-1.662585 0.93018,-2.874243 0.30996,-0.619919 0.64809,-1.211523 1.01441,-1.775085 0.36632,-0.59174 0.74652,-1.155469 1.14101,-1.690853 1.12713,-1.549796 2.05687,-2.690933 2.7895,-3.423564 0.73263,-0.73263 1.52195,-1.127034 2.36729,-1.18339 z m -14.07511,6.593913 c -0.0339,0.02258 -0.0751,0.03033 -0.11007,0.05064 0.0164,-0.03054 0.0478,-0.05064 0.11007,-0.05064 z m -67.41449,1.669665 c 1.13338,0 2.51471,0.301197 4.14394,0.903304 1.62922,0.56669 2.60302,1.062231 2.92178,1.487248 -0.67294,0.283345 -1.69964,0.60235 -3.08095,0.956531 -1.45213,0.389598 -2.69202,0.58446 -3.71915,0.58446 -1.91258,0 -2.86907,-0.673111 -2.86907,-2.018998 0,-1.275051 0.86797,-1.912545 2.60345,-1.912545 z m 29.88138,6.910173 c -0.47902,1.352549 -1.15529,2.874409 -2.02881,4.565096 -0.70445,1.549795 -1.33865,2.803471 -1.90221,3.761527 -0.59174,0.986234 -1.14127,1.479496 -1.64848,1.479496 -0.0282,0 -0.12654,-0.02839 -0.29559,-0.08475 -0.19725,-0.112712 -0.2961,-0.351987 -0.2961,-0.718302 0,-0.563562 0.183,-1.268223 0.54932,-2.113566 0.33814,-0.845344 0.78933,-1.746689 1.35288,-2.704745 0.3945,-0.563562 0.76051,-1.098898 1.09865,-1.606103 0.33814,-0.479029 0.67627,-0.916021 1.0144,-1.310515 0.30996,-0.366315 0.64809,-0.662376 1.01441,-0.887801 0.33814,-0.225425 0.71886,-0.35216 1.14153,-0.380337 z" /><path
       id="path5"
       style="font-size:42.2672px;line-height:0.75;font-family:'Ford Script';-inkscape-font-specification:'Ford Script';fill:#ffffff;stroke-width:0.529169;stroke-linecap:round;stroke-linejoin:round;paint-order:stroke markers fill"
       d="m 124.46647,36.781734 c -4.49809,0 -8.19943,0.601877 -11.10372,1.806092 -2.90428,1.168796 -5.11796,2.620836 -6.64094,4.356323 -1.52297,1.735486 -2.53238,3.400196 -3.02823,4.99401 -0.49586,1.558395 -0.79654,3.028245 -0.90279,4.40955 0,1.168797 0.10634,2.266732 0.31884,3.293856 0.24793,1.027124 0.67275,1.930197 1.27486,2.709395 0.63753,0.74378 1.50549,1.346173 2.60346,1.806608 1.09796,0.425017 2.53219,0.637688 4.30309,0.637688 3.75431,0 6.78254,-1.541085 9.08472,-4.622457 2.33759,-3.116792 3.50625,-6.853228 3.50625,-11.209652 0,-0.531271 -0.0178,-0.991711 -0.0532,-1.381311 0,-0.389598 -0.0178,-0.725896 -0.0532,-1.009241 -0.10625,-0.106254 -0.21207,-0.15968 -0.31832,-0.15968 -0.28335,0 -0.44311,0.230479 -0.47853,0.690914 -0.42501,1.806322 -0.88545,3.506134 -1.38131,5.099947 -0.46044,1.593814 -1.13303,3.240716 -2.01848,4.940784 -0.88545,1.700067 -2.019,3.117007 -3.40031,4.250386 -1.34588,1.133378 -2.93987,1.700155 -4.78162,1.700155 -1.16878,0 -2.2311,-0.496058 -3.1874,-1.487765 -0.95628,-0.991705 -1.43454,-2.337411 -1.43454,-4.037479 0.0708,-1.593814 0.49564,-3.276334 1.27486,-5.047237 0.7792,-1.806323 1.87714,-3.453224 3.29385,-4.940784 1.41673,-1.487559 3.13487,-2.727446 5.1537,-3.719153 2.01883,-0.991706 4.30322,-1.487248 6.85332,-1.487248 h 0.58446 c 0.1771,0 0.35415,0.01781 0.53124,0.05323 1.1688,0.106255 2.1782,0.21259 3.02824,0.318844 0.88545,0.106254 1.68218,0.265499 2.39055,0.478007 0.74378,0.212508 1.4347,0.495896 2.07222,0.850077 0.67294,0.354181 1.36335,0.831913 2.07171,1.434021 -3.11678,3.506389 -5.8082,6.835811 -8.07496,9.988021 -2.23134,3.152209 -3.98457,5.844137 -5.25962,8.075476 -0.60211,1.097961 -1.1867,2.142987 -1.75339,3.134692 -0.56668,0.991706 -1.09784,1.947689 -1.5937,2.868559 -0.9563,1.877159 -1.54087,2.833658 -1.75338,2.869076 -0.28335,-0.17709 -0.65527,-0.389761 -1.11569,-0.637688 -0.46044,-0.283345 -1.02721,-0.566733 -1.70016,-0.850077 -0.67295,-0.283345 -1.36335,-0.513307 -2.07171,-0.690397 -0.70836,-0.177091 -1.45218,-0.283426 -2.23138,-0.318844 -2.1251,0 -3.73689,0.301197 -4.83485,0.903304 -1.09796,0.602108 -1.64693,1.575899 -1.64693,2.921786 0,2.514683 2.39073,3.771863 7.17217,3.771863 0.88546,0 1.6471,-0.05291 2.28462,-0.159164 0.63752,-0.106255 1.2221,-0.248207 1.75338,-0.425297 0.56669,-0.17709 1.11566,-0.407053 1.64693,-0.690397 0.56669,-0.283345 1.22198,-0.619642 1.96577,-1.009241 0.3896,0.177091 0.93857,0.477771 1.64693,0.902788 l 1.5937,0.79685 c 0.35418,0.106254 0.88533,0.21259 1.5937,0.318844 0.74377,0.106254 1.75319,0.15968 3.02824,0.15968 1.52298,0.03542 2.99283,-0.195058 4.40955,-0.690914 1.45215,-0.531271 2.79837,-1.275101 4.03799,-2.231388 1.18018,-0.885124 2.2491,-1.92857 3.21686,-3.117123 0.0131,-0.0092 0.0262,-0.01597 0.0393,-0.02532 0.16906,-0.169069 0.32367,-0.338394 0.46457,-0.507463 0.10178,-0.152682 0.17309,-0.290427 0.22892,-0.420129 0.0258,-0.03543 0.053,-0.06984 0.0786,-0.10542 0.56982,-0.650709 1.10404,-1.253641 1.59474,-1.798857 0.53538,-0.563562 1.18326,-1.155683 1.94406,-1.775602 0.47903,-0.394493 0.90182,-0.732627 1.26814,-1.014408 0.3945,-0.281781 0.71844,-0.506859 0.97204,-0.675928 0.56356,-0.394493 1.26822,-0.690554 2.11356,-0.887801 l -7.14323,12.510864 c -0.87353,0.253603 -1.63445,0.493394 -2.28255,0.718819 -0.67628,0.225425 -1.28208,0.507289 -1.81746,0.845427 -0.56356,0.338137 -1.0847,0.760933 -1.56373,1.268139 -0.47902,0.535385 -0.97229,1.211652 -1.47949,2.028817 -1.43709,2.366961 -2.15543,4.198562 -2.15543,5.494755 0,1.04259 0.4228,1.87347 1.26814,2.493388 0.53538,0.394494 1.11279,0.591695 1.73271,0.591695 0.70446,0 1.45119,-0.239275 2.24018,-0.718302 0.76081,-0.45085 1.49334,-1.014578 2.1978,-1.690853 0.67627,-0.676275 1.28207,-1.366739 1.81746,-2.071191 0.53538,-0.676275 0.88771,-1.155341 1.05678,-1.437122 0.9017,-1.380727 2.1275,-3.803934 3.67729,-7.26984 1.01441,-0.112713 1.88788,-0.295718 2.62052,-0.549321 0.73263,-0.253603 1.54983,-0.690596 2.45153,-1.310514 1.09894,-0.76081 1.88775,-1.380291 2.36678,-1.859318 0.47331,-0.473311 1.05482,-1.216679 1.72444,-2.180746 l 1.86862,-1.623673 c -0.76081,1.916111 -1.14153,3.339113 -1.14153,4.26899 0,0.817165 0.25399,1.563899 0.76119,2.240173 0.90171,1.070768 2.07072,1.606104 3.5078,1.606104 0.87352,0 1.64865,-0.211399 2.32492,-0.63407 0.78898,-0.45085 1.38059,-0.831057 1.77508,-1.141016 0.19725,-0.14089 0.38026,-0.281822 0.54932,-0.422713 0.16908,-0.140891 0.3384,-0.281823 0.50747,-0.422713 0.16906,-0.140891 0.42253,-0.352289 0.76067,-0.63407 0.36632,-0.309959 0.83119,-0.704362 1.39475,-1.18339 -0.19725,0.676274 -0.29559,1.352542 -0.29559,2.028816 0,1.577974 0.76093,2.367298 2.28255,2.367298 1.8034,-0.112713 3.6208,-1.085041 5.45238,-2.916618 0.42267,-0.422672 0.775,-0.775002 1.05678,-1.056783 0.28178,-0.281781 0.52106,-0.549449 0.71831,-0.803052 0.19724,-0.253603 0.38025,-0.507074 0.54932,-0.760677 0.10928,-0.163933 0.24956,-0.40558 0.3824,-0.628385 l 2.19625,-1.907894 c -0.76081,1.859755 -1.14153,3.282756 -1.14153,4.26899 0,0.873521 0.25347,1.620254 0.76068,2.240173 0.90169,1.070768 2.07122,1.606104 3.50831,1.606104 0.87352,0 1.64864,-0.211399 2.32492,-0.63407 0.50721,-0.309959 0.93001,-0.577627 1.26814,-0.803052 0.36632,-0.253603 0.64766,-0.450805 0.84491,-0.591695 0.19725,-0.140891 0.53538,-0.408558 1.01441,-0.803052 0.47902,-0.422671 1.09902,-0.958007 1.85983,-1.606103 -0.19724,0.676274 -0.29559,1.338345 -0.29559,1.986442 0,1.606151 0.76042,2.409672 2.28204,2.409672 1.8034,-0.112713 3.62132,-1.085041 5.45289,-2.916618 0.87353,-0.929877 1.5072,-1.606145 1.9017,-2.028817 0.17884,-0.229938 0.35405,-0.475019 0.52709,-0.728121 0.0368,0.0023 0.0666,0.0093 0.10698,0.0093 0.16906,-0.112712 0.39466,-0.267324 0.67644,-0.464571 0.28178,-0.225425 0.56364,-0.436823 0.84543,-0.63407 0.28178,-0.197246 0.53525,-0.366572 0.76067,-0.507462 0.2536,-0.169069 0.42293,-0.267411 0.50747,-0.29559 l -0.38086,0.760677 c -0.22543,0.422672 -0.36635,0.802879 -0.42271,1.141016 0,3.804044 2.01512,5.706112 6.04459,5.706112 0.76081,-0.05635 1.52174,-0.168893 2.28255,-0.337964 0.76081,-0.197247 1.53542,-0.506988 2.3244,-0.929659 0.81717,-0.422672 1.66276,-0.972204 2.53628,-1.648478 0.87352,-0.704453 1.80326,-1.592119 2.7895,-2.662887 0.11271,-0.112713 0.25364,-0.282038 0.42271,-0.507463 0.19725,-0.253603 0.29559,-0.465001 0.29559,-0.634069 0,-0.281781 -0.23928,-0.464786 -0.7183,-0.549321 -0.0563,0 -0.50701,0.436993 -1.35238,1.310515 -0.81716,0.873521 -1.64855,1.591861 -2.4939,2.155423 -0.47903,0.30996 -0.98649,0.591825 -1.52187,0.845427 -0.50721,0.253603 -1.02835,0.465001 -1.56373,0.63407 -0.50721,0.169069 -0.98627,0.310001 -1.43712,0.422713 -0.45085,0.08454 -0.84525,0.126607 -1.18339,0.126607 -1.21166,-0.02818 -1.81746,-0.591908 -1.81746,-1.690853 0,-0.450849 0.0705,-0.873129 0.21135,-1.267623 l 0.38034,-0.887801 c 1.5498,-0.112712 2.95861,-0.38038 4.22662,-0.803051 1.29619,-0.45085 2.39526,-0.986185 3.29695,-1.606104 0.92988,-0.648096 1.63403,-1.380633 2.11305,-2.197799 0.50721,-0.817165 0.7612,-1.690634 0.7612,-2.620511 0,-1.916112 -1.4514,-2.874244 -4.35374,-2.874244 -1.40891,0 -2.81771,0.394403 -4.22662,1.183391 -1.4089,0.788986 -2.69097,1.676653 -3.84627,2.662886 -1.12166,0.957515 -2.81178,2.483444 -5.02244,4.529956 l 0.077,0.077 c 0,0.01176 -0.019,0.02047 -0.0264,0.03101 -0.0161,-0.03215 -0.0389,-0.07734 -0.0532,-0.105937 -0.0654,0.06055 -0.10779,0.09818 -0.17415,0.159681 0,0.0027 -0.0266,0.03987 -0.0284,0.04496 -0.12842,0.02413 -0.24763,0.03927 -0.35192,0.03927 -1.04258,0.986234 -1.88766,1.789237 -2.53576,2.409155 -0.61992,0.619919 -1.07111,1.056912 -1.35289,1.310515 -0.56356,0.479028 -0.98584,0.718302 -1.26762,0.718302 -0.0563,0 -0.11312,-0.02787 -0.1695,-0.08423 -0.0845,-0.02818 -0.12661,-0.141237 -0.12661,-0.338481 0,-0.253603 0.11254,-0.63381 0.33797,-1.141016 0.22542,-0.535383 0.49309,-1.112792 0.80305,-1.73271 0.33814,-0.619919 0.69047,-1.239917 1.05678,-1.859835 0.36631,-0.619918 0.67657,-1.169451 0.93018,-1.648478 0.14088,-0.253604 0.42275,-0.732669 0.84542,-1.437122 0.45086,-0.732631 1.04246,-1.704959 1.77509,-2.916618 1.46526,-2.395139 2.73313,-4.508088 3.8039,-6.339665 1.09895,-1.803398 1.98661,-3.296866 2.66289,-4.480346 0.70445,-1.183481 1.12725,-1.916535 1.26814,-2.198316 h -5.03019 l -8.15712,13.906128 c -0.28179,-0.73263 -0.54945,-1.282162 -0.80305,-1.648478 -0.25361,-0.366315 -0.6764,-0.704449 -1.26814,-1.014408 -0.47903,-0.281781 -1.1695,-0.422714 -2.0712,-0.422714 -0.98623,0 -2.11317,0.239792 -3.38118,0.71882 -1.23984,0.479027 -2.5361,1.239441 -3.88866,2.282031 -0.56356,0.450849 -1.08521,0.859449 -1.56424,1.225765 -0.47903,0.366315 -0.90131,0.704449 -1.26762,1.014408 -0.73264,0.648097 -1.32476,1.240218 -1.77561,1.775602 -0.22542,0.281781 -0.50677,0.619915 -0.84491,1.014409 -0.36631,0.366315 -0.77491,0.802791 -1.22576,1.309997 -0.0468,0.07029 -0.10935,0.18753 -0.1757,0.31626 -0.53565,0.516942 -1.10366,1.066039 -1.51515,1.458826 -0.61992,0.59174 -1.11319,1.042929 -1.4795,1.352889 -0.67628,0.59174 -1.16902,0.887284 -1.47898,0.887284 -0.0845,0 -0.155,-0.02787 -0.21136,-0.08423 -0.0845,-0.02818 -0.12712,-0.141237 -0.12712,-0.338481 0,-0.507206 0.29606,-1.323889 0.8878,-2.451013 0.61992,-1.155302 1.35246,-2.465765 2.1978,-3.931026 0.30996,-0.479029 0.73275,-1.225762 1.26814,-2.240174 0.56356,-1.014411 1.25402,-2.282284 2.07119,-3.803902 h -4.60747 l -1.52135,2.578137 c -0.28179,-0.73263 -0.54946,-1.282162 -0.80306,-1.648478 -0.2536,-0.366315 -0.67639,-0.704449 -1.26814,-1.014408 -0.47902,-0.281781 -1.15529,-0.422714 -2.02881,-0.422714 -1.01441,0 -2.15555,0.239792 -3.42357,0.71882 -1.26801,0.479027 -2.57848,1.239441 -3.93102,2.282031 -0.81717,0.619918 -1.50763,1.183647 -2.07119,1.690853 -0.56356,0.507205 -1.08471,1.000468 -1.56373,1.479496 -0.47904,0.479027 -0.9439,0.971773 -1.39475,1.478979 -0.47903,0.507206 -1.00016,1.070935 -1.56373,1.690853 -0.0563,0.08453 -0.1268,0.225466 -0.21136,0.422714 -0.0274,0.048 -0.0206,0.06151 -0.0413,0.102836 -0.83477,1.029364 -1.81542,1.849462 -2.96002,2.433443 -1.46526,0.73263 -2.578,1.1975 -3.33882,1.394747 l 7.86154,-12.80697 c -1.09895,-0.366316 -2.05708,-0.549838 -2.87424,-0.549838 -0.53539,0 -1.14119,0.08466 -1.81746,0.253732 -0.67628,0.14089 -1.52135,0.408558 -2.53577,0.803051 -0.92988,0.309959 -2.15567,1.07089 -3.67729,2.282548 -0.45414,0.384274 -0.92358,0.814694 -1.38855,1.23145 0.64424,-1.39262 1.15061,-2.840561 1.50379,-4.349606 0.3896,-1.66465 0.56665,-3.32936 0.53123,-4.99401 0,-1.487559 -0.17705,-2.868366 -0.53123,-4.143416 -0.35419,-1.31047 -0.74391,-2.373304 -1.16892,-3.187919 -0.21251,-0.3896 -0.44247,-0.796614 -0.6904,-1.221631 -0.21251,-0.425017 -0.46027,-0.832549 -0.74363,-1.222148 -0.49585,-0.885452 -0.74414,-1.363701 -0.74414,-1.434538 0,-0.141672 0.58458,-0.566496 1.75339,-1.274857 1.20421,-0.672944 1.80609,-1.221912 1.80609,-1.646928 0,-0.141673 -0.0529,-0.265817 -0.15917,-0.37207 -0.17708,-0.177091 -0.44267,-0.265617 -0.79685,-0.265617 -0.31876,0 -0.69068,0.07072 -1.11569,0.21239 -0.38959,0.106255 -0.79712,0.266015 -1.22215,0.478524 -0.42502,0.177089 -0.83203,0.371435 -1.22163,0.583943 -0.35418,0.177091 -0.63758,0.336852 -0.85008,0.478524 -0.85003,-0.425016 -1.78871,-0.832548 -2.81585,-1.222148 -1.02711,-0.389599 -2.07214,-0.743705 -3.13469,-1.062467 -1.02712,-0.318762 -2.01872,-0.566533 -2.97501,-0.743624 -0.92087,-0.17709 -1.71761,-0.265617 -2.39055,-0.265617 z M 196.9561,66.20061 c 9.1e-4,-8.46e-4 0.002,-0.0012 0.003,-0.0021 l -0.007,-0.0067 c 0.001,0.0023 0.003,0.0064 0.004,0.0088 z M 136.04819,43.794226 c 1.45215,2.089667 2.17816,5.047173 2.17816,8.872327 -0.10625,3.435553 -0.51327,6.286726 -1.22163,8.553483 -0.67294,2.266757 -1.50529,4.019994 -2.497,5.259627 -0.99171,1.204215 -1.93039,2.089479 -2.81585,2.656169 -0.46044,0.283344 -1.00941,0.60235 -1.64693,0.95653 -0.63753,0.318763 -1.36354,0.67287 -2.17816,1.062468 -0.67294,0.354182 -1.57602,0.531234 -2.7094,0.531234 -1.73549,0 -3.73701,-0.531159 -6.00377,-1.593702 3.22305,-2.125084 5.70231,-4.232428 7.43779,-6.322094 1.77091,-2.089668 3.04641,-4.002148 3.82561,-5.737635 0.77919,-1.735486 1.68226,-4.126217 2.70939,-7.172172 0.49586,-1.522977 0.99141,-2.8692 1.48725,-4.037996 0.49585,-1.168797 0.97411,-2.178205 1.43454,-3.028239 z m 17.28318,5.870443 c -0.53538,0 -1.02864,0.126735 -1.47949,0.380338 -0.50721,0.253603 -0.92949,0.648006 -1.26763,1.183391 -0.30996,0.507205 -0.46508,1.028344 -0.46508,1.563728 0,0.253604 0.0279,0.465002 0.0842,0.63407 h 5.1e-4 c 0.30996,0.732631 0.94364,1.099158 1.9017,1.099158 0.47902,0 0.95809,-0.126735 1.43712,-0.380339 1.18348,-0.648096 1.77508,-1.577835 1.77508,-2.789493 0,-0.05635 -0.0137,-0.141016 -0.0419,-0.253732 0,-0.112712 -0.0142,-0.239448 -0.0424,-0.380338 -0.22542,-0.704453 -0.85962,-1.056783 -1.90221,-1.056783 z m 57.48332,9.552388 c 0.36631,0 0.66237,0.168809 0.8878,0.506946 0.19724,0.225425 0.2961,0.50729 0.2961,0.845427 0.0563,0.507206 -0.16926,1.098811 -0.67644,1.775085 -0.50721,0.676275 -1.1414,1.310469 -1.90221,1.902209 -0.76081,0.591741 -1.56381,1.0992 -2.40916,1.521871 -0.84534,0.394493 -1.57788,0.563302 -2.1978,0.506946 0.22542,-0.676274 0.59196,-1.394615 1.09916,-2.155424 0.25361,-0.366315 0.53495,-0.732843 0.84491,-1.099158 0.30996,-0.394493 0.6481,-0.788896 1.01441,-1.18339 0.70445,-0.788987 1.12725,-1.253856 1.26814,-1.394747 0.64809,-0.817164 1.2397,-1.225765 1.77509,-1.225765 z m -45.22567,0.380339 c 0.2536,0 0.50707,0.155128 0.76068,0.465088 0.28178,0.309959 0.42271,0.746435 0.42271,1.309997 0,1.352549 -0.803,3.015342 -2.40915,4.98781 -2.76146,3.437729 -4.79026,5.156274 -6.08645,5.156274 -0.22543,0 -0.39476,-0.04207 -0.50747,-0.126607 -0.33814,-0.197247 -0.50694,-0.53538 -0.50694,-1.014409 0,-0.338137 0.0705,-0.73254 0.21136,-1.18339 0.14089,-0.479028 0.32389,-0.986487 0.54932,-1.521871 0.2536,-0.535384 0.53546,-1.084916 0.84542,-1.648478 0.33814,-0.59174 0.70467,-1.154952 1.09916,-1.690336 1.12713,-1.521618 2.12733,-2.676951 3.00085,-3.465939 0.9017,-0.788986 1.77517,-1.211783 2.62051,-1.268139 z m 22.78207,0 c 0.2536,0 0.49288,0.140932 0.71831,0.422713 0.22542,0.281781 0.33848,0.676184 0.33848,1.18339 0,1.324371 -0.84559,3.043434 -2.53628,5.156792 -1.52162,1.916111 -2.74742,3.25445 -3.6773,4.015258 -0.9017,0.76081 -1.62003,1.141016 -2.15542,1.141016 -0.22543,0 -0.39475,-0.04207 -0.50746,-0.126607 -0.28178,-0.112713 -0.42272,-0.394577 -0.42272,-0.845427 0,-0.704452 0.31026,-1.662585 0.93018,-2.874243 0.30996,-0.619919 0.64809,-1.211523 1.01441,-1.775085 0.36632,-0.59174 0.74652,-1.155469 1.14101,-1.690853 1.12713,-1.549796 2.05687,-2.690933 2.7895,-3.423564 0.73263,-0.73263 1.52195,-1.127034 2.36729,-1.18339 z m -14.07511,6.593913 c -0.0339,0.02258 -0.0751,0.03033 -0.11007,0.05064 0.0164,-0.03054 0.0478,-0.05064 0.11007,-0.05064 z m -67.41449,1.669665 c 1.13338,0 2.51471,0.301197 4.14394,0.903304 1.62922,0.56669 2.60302,1.062231 2.92178,1.487248 -0.67294,0.283345 -1.69964,0.60235 -3.08095,0.956531 -1.45213,0.389598 -2.69202,0.58446 -3.71915,0.58446 -1.91258,0 -2.86907,-0.673111 -2.86907,-2.018998 0,-1.275051 0.86797,-1.912545 2.60345,-1.912545 z m 29.88138,6.910173 c -0.47902,1.352549 -1.15529,2.874409 -2.02881,4.565096 -0.70445,1.549795 -1.33865,2.803471 -1.90221,3.761527 -0.59174,0.986234 -1.14127,1.479496 -1.64848,1.479496 -0.0282,0 -0.12654,-0.02839 -0.29559,-0.08475 -0.19725,-0.112712 -0.2961,-0.351987 -0.2961,-0.718302 0,-0.563562 0.183,-1.268223 0.54932,-2.113566 0.33814,-0.845344 0.78933,-1.746689 1.35288,-2.704745 0.3945,-0.563562 0.76051,-1.098898 1.09865,-1.606103 0.33814,-0.479029 0.67627,-0.916021 1.0144,-1.310515 0.30996,-0.366315 0.64809,-0.662376 1.01441,-0.887801 0.33814,-0.225425 0.71886,-0.35216 1.14153,-0.380337 z" /><ellipse
       style="fill:none;fill-opacity:0.35355;stroke:#09221a;stroke-width:2.64583;stroke-linecap:round;stroke-linejoin:round;stroke-dasharray:none;stroke-opacity:1;paint-order:stroke markers fill"
       id="ellipse2"
       cy="58.208332"
       cx="158.75"
       ry="31.150263"
       rx="69.493294" /><ellipse
       style="fill:none;fill-opacity:0.35355029;stroke-width:2.64583333;stroke-linecap:round;stroke-linejoin:round;paint-order:stroke markers fill;stroke:#ffffff;stroke-opacity:1;stroke-dasharray:none"
       id="ellipse1"
       ry="31.898617"
       rx="69.493294"
       cy="58.208332"
       cx="158.75" /></g></svg>
